<svg xmlns="http://www.w3.org/2000/svg" width="1024" height="1024" viewBox="0 0 1254 1254">
  <path d="M0 0h1254v1254H0z"/>
  <path fill="#fff" d="M1091.717 210.348c32.697 27.607 51.793 71.212 50.29 115.395-1.736 55.116-34.26 105.24-83.799 129.483-21.749 10.67-54.209 16.403-76.92 13.89l-9.908-1.2L839.147 696.95c-88.087 152.572-135.4 233.44-141.686 242.438-67.678 96.701-178.664 142.055-284.41 116.232-25.507-6.31-34.533-10.117-63.878-27.06-23.432-13.684-28.14-16.87-37.613-25.3-66.877-60.748-97.862-153.15-81.053-242.744 7.637-41.577 25.897-84.814 57-135.446 27.494-44.921 39.67-64.392 44.188-71.136 2.461-3.724 8.378-12.622 12.982-19.785 37.919-58.388 108.336-157.405 124.911-175.583 2.07-2.235 6.409 57.48 16.362 225.19.917 15.962 3.037 51.17 4.675 78.303s2.974 50.198 3.019 51.47c.026 1.575-.89.734-2.635-2.456-6.396-11.33-48.074-82.783-56.386-96.467-5.07-8.227-10.46-16.171-12.06-17.72-5.738-5.182-11.23-1.339-25.584 18.122-13.242 18.076-40.731 61.909-50.29 80.084-28.374 54.546-35.923 102.72-23.719 152.323 13.224 53.777 47.59 93.883 96.017 112.334 30.458 11.505 62.318 12.752 96.502 3.494 44.376-11.792 83.604-40.586 113.45-83.37 6.083-8.647 53.53-89.749 136.015-232.617l126.563-219.213-5.45-5.951c-36.394-39.563-47.726-100.665-28.208-151.75 5.455-14.31 21.947-40.174 32.259-50.745 30.917-31.41 73.805-47.645 116.976-44.389 32.206 2.538 58.998 13.642 84.623 35.14"/>
  <path d="M1025.013 257.572c-1.422-.508-5.87-1.985-9.781-3.308-18.375-6.244-42.119-2.65-59.703 9.178-33.27 22.256-41.533 65.187-18.926 98.66 16.934 25.21 46.875 36.26 76.516 28.12 21.158-5.866 33.831-16.477 44.843-37.71 6.08-11.61 6.472-13.1 7.263-25.27.524-8.738-.112-16.276-1.99-23.284-2.915-10.88-11.172-25.468-18.258-32.365-4.851-4.827-16.403-12.9-19.964-14.02"/>
</svg>
